# xmcd
#
# Track frame offsets:
#	150
#	16700
#	35200
#	55132
#	70645
#	88735
#	104435
#	122865
#	139680
#	156292
#	175812
#	191807
#	213532
#	233792
#	251162
#	274094
#	288707
#	309464
#	326282
#	344617
#
# Disc length: 4799 seconds
#
# Revision: 2
# Processed by: cddbd v1.5.2PL0 Copyright (c) Steve Scherf et al.
# Submitted via: dBpowerAMP V4.0
#
DISCID=3112bd14
DTITLE=Geri Halliwell - Scream If You Wanna Go Faster (bonus)
DYEAR=2001
DGENRE=Pop
TTITLE0=Scream If You Wanna Go Faster
TTITLE1=Shake Your Bootle Cutie
TTITLE2=Calling
TTITLE3=Feels Like Sex
TTITLE4=Circles Around The Moon
TTITLE5=Love Is The Only Light
TTITLE6=Strenght Of A Woman
TTITLE7=Don't Call Me Baby
TTITLE8=Lovey Dovey Stuff
TTITLE9=It's Raining Men
TTITLE10=Heaven And Hell (Being Geri Haliliwell)
TTITLE11=I Was Made That Way
TTITLE12=Look At Me
TTITLE13=Lift Me Up
TTITLE14=Walkaway
TTITLE15=Mi Chico Latino
TTITLE16=Goodnight Kiss
TTITLE17=Bag It Up
TTITLE18=Sometime
TTITLE19=Let MeLove You
EXTD=di mon
EXTT0=
EXTT1=
EXTT2=
EXTT3=
EXTT4=
EXTT5=
EXTT6=
EXTT7=
EXTT8=
EXTT9=
EXTT10=
EXTT11=
EXTT12=
EXTT13=
EXTT14=
EXTT15=
EXTT16=
EXTT17=
EXTT18=
EXTT19=
PLAYORDER=
